<?xml version="1.0" standalone="no"?>
<!DOCTYPE svg PUBLIC "-//W3C//DTD SVG 20010904//EN"
 "http://www.w3.org/TR/2001/REC-SVG-20010904/DTD/svg10.dtd">
<svg version="1.0" xmlns="http://www.w3.org/2000/svg"
 width="512.000000pt" height="512.000000pt" viewBox="0 0 512.000000 512.000000"
 preserveAspectRatio="xMidYMid meet">
<metadata>
Created by potrace 1.11, written by Peter Selinger 2001-2013
</metadata>
<g transform="translate(0.000000,512.000000) scale(0.100000,-0.100000)"
fill="#000000" stroke="none">
<path d="M2320 5110 c-502 -52 -982 -248 -1365 -557 -288 -232 -517 -518 -684
-854 -124 -249 -204 -502 -247 -784 -26 -169 -26 -541 0 -710 71 -465 260
-899 543 -1250 232 -288 518 -517 854 -684 249 -124 502 -204 784 -247 169
-26 541 -26 710 0 465 71 899 260 1250 543 288 232 517 518 684 854 124 249
204 502 247 784 26 169 26 541 0 710 -71 465 -260 899 -543 1250 -232 288
-518 517 -854 684 -246 123 -506 205 -779 246 -124 19 -478 28 -600 15z m-110
-2442 l0 -1023 -187 -107 -186 -108 -307 0 -307 0 -186 108 -187 107 0 263 0
262 160 0 160 0 0 -225 0 -225 360 0 360 0 0 985 0 985 160 0 160 0 0 -1022z
m1880 912 l185 -108 3 -471 2 -471 -52 -33 c-29 -19 -114 -68 -188 -110 l-136
-77 -397 0 -397 0 0 -430 0 -430 -160 0 -160 0 0 1120 0 1120 558 -1 557 0
185 -109z"/>
<path d="M3110 3000 l0 -400 420 0 420 0 0 400 0 400 -420 0 -420 0 0 -400z"/>
</g>
</svg>
